<?xml version="1.0" standalone="no"?>
<!DOCTYPE svg PUBLIC "-//W3C//DTD SVG 20010904//EN"
 "http://www.w3.org/TR/2001/REC-SVG-20010904/DTD/svg10.dtd">
<svg version="1.0" xmlns="http://www.w3.org/2000/svg"
 width="512.000000pt" height="512.000000pt" viewBox="0 0 512.000000 512.000000"
 preserveAspectRatio="xMidYMid meet">

<g transform="translate(0.000000,512.000000) scale(0.100000,-0.100000)"
fill="#000000" stroke="none">
<path d="M2451 4668 c-45 -17 -95 -60 -315 -267 -143 -136 -585 -552 -981
-925 -396 -373 -733 -695 -749 -715 -96 -121 -111 -287 -38 -424 37 -68 129
-150 199 -178 43 -16 87 -23 171 -27 l112 -5 0 -606 c0 -350 5 -636 10 -676
28 -195 177 -358 365 -400 58 -13 132 -15 430 -13 l360 3 51 27 c59 31 108 84
138 147 20 44 21 65 26 492 5 422 6 448 24 468 19 20 27 21 306 21 279 0 287
-1 306 -21 18 -20 19 -46 24 -468 5 -427 6 -448 26 -492 30 -63 79 -116 138
-147 l51 -27 355 -3 c238 -2 375 0 415 8 199 38 359 209 385 410 5 41 10 346
10 676 l0 601 113 5 c143 7 205 29 285 103 158 146 175 367 41 532 -27 32
-899 858 -1906 1804 -125 117 -227 145 -352 97z m1022 -1278 l906 -855 -193
-5 -194 -5 -38 -31 c-21 -16 -47 -43 -58 -58 -21 -27 -21 -39 -26 -793 l-5
-765 -28 -24 -28 -24 -259 0 -259 0 -3 398 c-3 390 -4 398 -27 455 -53 132
-174 246 -307 287 -61 18 -92 20 -394 20 -302 0 -333 -2 -394 -20 -133 -41
-254 -155 -307 -287 -23 -57 -24 -65 -27 -455 l-3 -398 -259 0 -259 0 -28 24
-28 24 -5 765 -5 765 -31 39 c-59 72 -76 77 -286 83 l-186 5 906 857 c499 471
910 856 913 855 3 -1 414 -387 912 -857z"/>
</g>
</svg>
