<?xml version="1.0" standalone="no"?>
<!DOCTYPE svg PUBLIC "-//W3C//DTD SVG 20010904//EN"
 "http://www.w3.org/TR/2001/REC-SVG-20010904/DTD/svg10.dtd">
<svg version="1.0" xmlns="http://www.w3.org/2000/svg"
 width="512.000000pt" height="512.000000pt" viewBox="0 0 512.000000 512.000000"
 preserveAspectRatio="xMidYMid meet">

<g transform="translate(0.000000,512.000000) scale(0.100000,-0.100000)"
fill="#000000" stroke="none">
<path d="M2335 4391 c-1117 -224 -2042 -410 -2057 -414 -45 -12 -94 -62 -107
-109 -11 -39 -4 -79 75 -468 48 -234 86 -434 84 -445 -1 -11 -4 -510 -6 -1110
-3 -762 -1 -1106 7 -1143 36 -174 178 -321 356 -367 86 -23 3660 -23 3746 0
178 46 320 193 356 367 8 37 11 386 9 1145 -3 1085 -3 1092 -24 1119 -11 15
-33 37 -48 48 -27 21 -30 21 -1718 26 l-1691 5 1574 313 c866 173 1613 322
1661 333 77 18 91 25 122 59 19 21 38 54 41 73 10 50 -155 869 -182 905 -33
44 -69 65 -120 68 -33 2 -662 -120 -2078 -405z m1988 -173 c26 -127 45 -233
44 -235 -2 -1 -57 -14 -123 -27 l-119 -25 -285 189 c-157 105 -278 190 -270
191 8 0 166 31 350 69 184 37 340 68 346 69 7 1 30 -93 57 -231z m-924 -187
c150 -100 271 -184 268 -187 -2 -2 -147 -33 -323 -69 l-319 -64 -280 186
c-173 115 -274 188 -265 192 33 11 616 128 630 126 9 -1 139 -84 289 -184z
m-1099 -221 c150 -100 270 -183 267 -186 -2 -2 -147 -33 -322 -68 l-318 -64
-279 186 c-153 102 -276 187 -273 190 8 8 629 131 642 127 6 -2 134 -85 283
-185z m-1097 -219 c152 -101 276 -185 275 -187 -5 -4 -870 -175 -872 -172 -5
6 -94 463 -91 466 4 5 389 81 400 79 6 -1 135 -85 288 -186z m92 -1111 l-240
-240 -207 0 -208 0 0 240 0 240 447 0 448 0 -240 -240z m1120 0 l-240 -240
-335 0 -335 0 240 240 240 240 335 0 335 0 -240 -240z m1120 0 l-240 -240
-335 0 -335 0 240 240 240 240 335 0 335 0 -240 -240z m945 0 l0 -240 -367 0
-368 0 240 240 240 240 127 0 128 0 0 -240z m-2 -1148 l-3 -589 -29 -37 c-54
-71 95 -66 -1900 -64 l-1805 3 -27 21 c-15 11 -37 33 -48 48 -21 27 -21 39
-24 617 l-2 589 1920 0 1920 0 -2 -588z"/>
</g>
</svg>
