<svg xmlns="http://www.w3.org/2000/svg" version="1.0" width="1920.000000pt" height="1080.000000pt" viewBox="0 0 1920.000000 1080.000000" preserveAspectRatio="xMidYMid meet">

<g transform="translate(0.000000,1080.000000) scale(0.100000,-0.100000)" fill="#ffffff" stroke="none">
<path d="M14165 8866 c-187 -78 -269 -117 -268 -127 2 -8 138 -441 303 -962 165 -520 300 -950 300 -954 0 -8 -211 -95 -217 -89 -2 1 -140 434 -307 962 -167 527 -308 959 -313 959 -5 0 -130 -49 -277 -110 -237 -97 -267 -112 -263 -130 8 -38 780 -2470 786 -2477 8 -9 1326 536 1325 548 -5 28 -789 2494 -794 2493 -3 0 -126 -51 -275 -113z" fill="#ffffff"/>
<path d="M7500 8404 c-14 -2 -63 -9 -110 -15 -162 -22 -367 -102 -524 -206 -100 -67 -282 -247 -359 -356 -43 -60 -81 -102 -110 -119 -95 -60 -219 -212 -295 -364 -67 -133 -135 -383 -163 -599 -6 -49 -13 -198 -14 -330 -2 -231 -3 -242 -26 -285 -40 -75 -58 -123 -58 -156 -2 -68 73 -112 166 -98 44 6 46 6 40 -16 -3 -12 -29 -62 -59 -110 l-52 -87 -74 -6 c-247 -19 -548 -324 -904 -917 -218 -364 -516 -959 -736 -1475 -95 -223 -166 -395 -207 -500 -25 -66 -62 -159 -81 -207 -55 -141 -75 -224 -81 -343 -6 -121 9 -227 49 -331 l21 -56 291 6 c160 4 775 11 1366 17 2379 23 3431 36 3437 43 4 3 18 88 33 189 l25 182 30 3 c137 11 447 101 870 252 283 101 472 174 550 213 164 81 1101 454 1765 704 52 19 99 39 104 44 6 6 5 27 -2 56 -69 278 -103 428 -100 447 2 17 71 77 243 214 132 105 256 204 275 221 21 17 65 38 108 51 l73 21 77 -30 c42 -16 122 -43 177 -60 l100 -31 35 -61 c41 -72 100 -129 135 -129 35 0 71 44 92 112 10 32 23 58 28 58 43 0 306 -54 370 -75 95 -32 146 -30 226 10 55 28 149 116 149 140 0 25 -18 60 -54 108 l-37 48 52 137 c45 119 52 147 52 210 0 39 3 72 7 72 18 0 352 42 470 60 74 10 170 24 213 30 138 18 227 75 257 164 26 80 -7 107 -108 88 -186 -36 -350 -39 -430 -8 -37 14 -54 15 -102 6 -38 -7 -73 -7 -102 -1 -23 5 -108 17 -187 26 -120 13 -155 20 -205 45 -34 17 -83 33 -111 36 -32 4 -59 15 -75 30 -30 27 -90 54 -123 54 -45 0 -126 -31 -185 -70 -59 -39 -66 -41 -194 -56 -290 -32 -542 -83 -708 -144 -47 -17 -123 -39 -170 -50 -137 -30 -230 -70 -274 -119 -22 -25 -58 -27 -76 -6 -11 14 -20 11 -69 -17 -223 -127 -229 -129 -251 -103 -10 12 -15 12 -33 0 -104 -67 -921 -353 -2352 -825 l-310 -102 -205 11 c-113 6 -253 11 -311 11 -83 0 -114 4 -145 19 -21 10 -68 27 -103 37 -46 12 -73 27 -98 53 -49 50 -207 372 -199 404 10 40 150 117 213 117 40 0 144 52 193 96 34 31 52 39 101 46 67 9 142 44 178 82 53 57 56 165 7 273 -36 77 -34 93 19 141 25 22 45 48 45 57 0 10 -11 30 -25 47 -27 32 -33 58 -12 58 31 0 117 50 130 77 14 26 13 39 -8 143 -14 63 -24 118 -25 123 0 4 47 7 104 6 204 -1 243 57 170 257 -121 331 -174 490 -174 520 0 30 7 39 74 88 118 88 151 137 121 182 -13 20 -19 23 -36 13 -11 -6 -26 -8 -33 -6 -15 6 -63 243 -53 254 4 4 67 -3 140 -15 145 -24 293 -28 363 -11 24 6 58 24 74 39 40 37 39 82 0 160 -28 56 -50 83 -50 61 0 -6 -14 -26 -31 -46 -27 -30 -37 -35 -75 -35 -58 0 -105 30 -180 115 -95 108 -360 335 -554 475 -345 249 -712 426 -1005 484 -142 28 -307 41 -385 30z" fill="#ffffff"/>
<path d="M11960 7485 c-272 -112 -494 -208 -494 -212 8 -48 591 -1863 598 -1863 17 0 406 162 406 169 0 3 -31 103 -69 221 -38 118 -67 216 -66 218 2 2 127 -62 279 -143 153 -80 282 -146 288 -148 14 -3 250 365 240 374 -4 3 -139 75 -299 160 -161 84 -293 155 -293 158 0 3 61 31 135 61 74 30 135 59 135 63 0 11 -350 1118 -359 1134 -4 8 -162 -53 -501 -192z m265 -538 c25 -79 45 -146 45 -149 0 -7 -160 -72 -163 -67 -6 8 -87 275 -87 285 0 10 127 70 152 73 4 1 28 -64 53 -142z" fill="#ffffff"/>
<path d="M10850 7135 c-272 -112 -494 -208 -494 -212 8 -48 591 -1863 598 -1863 14 0 968 390 980 401 7 6 -562 1827 -583 1866 -4 8 -162 -52 -501 -192z m269 -552 c28 -87 100 -315 161 -507 60 -193 107 -353 103 -357 -14 -14 -153 -68 -157 -61 -8 14 -316 995 -316 1007 0 10 125 71 152 74 4 1 30 -70 57 -156z" fill="#ffffff"/>
<path d="M13091 7055 c-156 -63 -286 -117 -289 -120 -5 -5 144 -392 157 -407 6 -7 555 206 574 222 6 5 -144 404 -156 417 -1 0 -130 -50 -286 -112z" fill="#ffffff"/>
<path d="M9740 6785 c-272 -112 -494 -208 -494 -212 8 -51 591 -1863 599 -1863 11 0 395 157 403 164 3 4 -215 701 -224 717 -2 4 126 60 284 124 158 65 289 120 291 122 6 4 -119 404 -130 417 -4 4 -136 -45 -293 -109 -158 -65 -288 -116 -289 -114 -6 8 -87 274 -87 285 0 6 125 62 278 124 152 62 281 117 286 121 7 7 -102 377 -123 416 -4 8 -162 -53 -501 -192z" fill="#ffffff"/>
</g>
</svg>