<?xml version="1.0" standalone="no"?>
<!DOCTYPE svg PUBLIC "-//W3C//DTD SVG 20010904//EN"
 "http://www.w3.org/TR/2001/REC-SVG-20010904/DTD/svg10.dtd">
<svg version="1.0" xmlns="http://www.w3.org/2000/svg"
 width="512.000000pt" height="512.000000pt" viewBox="0 0 512.000000 512.000000"
 preserveAspectRatio="xMidYMid meet">

<g transform="translate(0.000000,512.000000) scale(0.100000,-0.100000)"
fill="#000000" stroke="none">
<path d="M1735 5005 c-36 -35 -32 -72 14 -141 22 -33 177 -255 344 -494 l304
-435 -1061 -5 -1061 -5 -57 -23 c-75 -31 -150 -101 -185 -177 l-28 -60 0
-1530 0 -1530 26 -56 c60 -128 161 -194 312 -205 l87 -7 0 -102 c0 -93 2 -103
23 -123 25 -23 75 -29 107 -12 27 15 40 64 40 156 l0 84 1960 0 1960 0 0 -84
c0 -130 20 -166 93 -166 22 0 41 8 55 23 20 21 22 34 22 124 l0 100 88 7 c150
11 251 77 311 205 l26 56 0 1530 0 1530 -28 60 c-35 76 -110 146 -185 177
l-57 23 -1062 5 -1062 5 304 490 c237 381 305 497 305 523 0 71 -93 111 -140
60 -11 -12 -157 -242 -323 -510 -166 -268 -305 -488 -309 -488 -3 0 -161 222
-349 492 -189 271 -352 501 -361 510 -27 27 -84 23 -113 -7z m3074 -1254 c57
-11 91 -37 119 -91 l22 -44 0 -1481 c0 -1415 -1 -1482 -19 -1520 -22 -49 -48
-73 -98 -91 -57 -20 -4489 -20 -4546 0 -50 18 -76 42 -98 91 -18 38 -19 105
-19 1520 l0 1481 23 44 c26 52 62 80 114 90 53 11 4448 11 4502 1z"/>
<path d="M792 3580 c-209 -23 -403 -205 -441 -414 -15 -82 -15 -1979 0 -2062
32 -179 175 -338 360 -400 51 -18 123 -19 1284 -22 825 -2 1256 1 1310 8 201
26 370 172 429 369 14 49 16 166 16 1077 0 987 -1 1024 -20 1085 -48 158 -176
286 -339 342 l-66 22 -1230 1 c-676 1 -1263 -2 -1303 -6z m2575 -192 c79 -29
162 -112 191 -191 l22 -58 0 -1004 c0 -1003 0 -1004 -21 -1062 -26 -69 -95
-145 -161 -179 -25 -13 -77 -28 -115 -34 -46 -7 -467 -10 -1283 -8 -1014 3
-1221 5 -1250 17 -62 25 -135 79 -168 125 -71 99 -67 25 -70 1105 -2 628 1
993 8 1028 24 131 116 236 240 274 14 4 593 8 1287 8 l1262 1 58 -22z"/>
<path d="M1585 3318 c-31 -17 -275 -260 -291 -290 -20 -38 -18 -63 10 -94 18
-21 32 -28 60 -28 34 0 48 11 186 149 82 82 151 158 152 169 6 36 -13 76 -43
91 -33 18 -47 18 -74 3z"/>
<path d="M884 3048 c-105 -106 -194 -201 -198 -211 -10 -30 18 -82 52 -96 49
-21 84 4 276 198 164 166 176 181 176 215 0 48 -36 86 -82 86 -30 0 -53 -20
-224 -192z"/>
<path d="M1074 2806 c-36 -16 -54 -58 -43 -99 10 -38 36 -56 80 -57 47 0 79
33 79 83 0 35 -27 77 -49 77 -5 0 -15 2 -23 5 -7 2 -27 -2 -44 -9z"/>
<path d="M764 2508 c-60 -55 -88 -104 -77 -135 13 -38 46 -63 83 -63 31 0 44
9 100 65 55 56 64 70 64 101 0 28 -7 42 -28 60 -44 38 -76 32 -142 -28z"/>
<path d="M3973 3150 c-47 -19 -59 -101 -20 -138 23 -22 27 -22 400 -22 362 0
378 1 397 20 42 42 32 111 -20 137 -30 15 -720 18 -757 3z"/>
<path d="M3974 2806 c-51 -22 -62 -95 -21 -134 23 -22 27 -22 400 -22 362 0
378 1 397 20 42 42 32 111 -20 137 -37 19 -712 18 -756 -1z"/>
<path d="M3985 2470 c-39 -12 -55 -35 -55 -80 0 -48 17 -69 65 -80 61 -14 682
-11 725 3 61 21 77 100 28 143 -19 18 -45 19 -377 21 -196 1 -369 -2 -386 -7z"/>
<path d="M3950 2110 c-19 -19 -20 -33 -20 -399 0 -358 1 -380 19 -402 l19 -24
375 -3 375 -3 29 25 28 24 0 382 0 382 -24 19 c-22 18 -44 19 -402 19 -366 0
-380 -1 -399 -20z m660 -405 l0 -255 -255 0 -255 0 0 255 0 255 255 0 255 0 0
-255z"/>
</g>
</svg>
